<svg width="43" height="31" viewBox="0 0 43 31" fill="none" xmlns="http://www.w3.org/2000/svg">
<path d="M25.482 4.94537L25.2261 3.46734L25.482 4.94537ZM13.2573 15.0192L11.8554 14.4856L11.8554 14.4856L13.2573 15.0192ZM6.63059 29.4475C6.96968 30.2034 7.8573 30.5412 8.61315 30.2021L20.9305 24.6764C21.6863 24.3373 22.0242 23.4497 21.6851 22.6938C21.346 21.938 20.4584 21.6001 19.7025 21.9392L8.75381 26.851L3.84205 15.9022C3.50297 15.1464 2.61534 14.8085 1.85949 15.1476C1.10364 15.4867 0.765785 16.3743 1.10487 17.1302L6.63059 29.4475ZM42.244 0.521836L25.2261 3.46734L25.7378 6.42339L42.7556 3.47788L42.244 0.521836ZM11.8554 14.4856L6.5973 28.2999L9.40107 29.3671L14.6592 15.5528L11.8554 14.4856ZM25.2261 3.46734C19.1363 4.5214 14.054 8.70952 11.8554 14.4856L14.6592 15.5528C16.4809 10.7669 20.6919 7.29675 25.7378 6.42339L25.2261 3.46734Z" fill="black"/>
</svg>
