<svg width="65" height="29" viewBox="0 0 65 29" fill="none" xmlns="http://www.w3.org/2000/svg">
<path d="M7.1875 20.3516C7.10938 20.7266 7.00781 21.1953 6.88281 21.7578C6.77344 22.3203 6.64062 22.9141 6.48438 23.5391C6.34375 24.1641 6.17188 24.7812 5.96875 25.3906C5.78125 26.0156 5.57031 26.5703 5.33594 27.0547C5.10156 27.5547 4.84375 27.9609 4.5625 28.2734C4.28125 28.5859 3.96875 28.7422 3.625 28.7422C3.10938 28.7422 2.66406 28.5859 2.28906 28.2734C1.92969 27.9766 1.625 27.5938 1.375 27.125C1.125 26.6719 0.945312 26.1797 0.835938 25.6484C0.710938 25.1172 0.648438 24.625 0.648438 24.1719C0.648438 23.5469 0.703125 23.0234 0.8125 22.6016C0.921875 22.1953 1.10938 21.8047 1.375 21.4297C1.65625 21.0547 2.03125 20.6562 2.5 20.2344C2.96875 19.8125 3.57031 19.2891 4.30469 18.6641C4.66406 18.3516 5.00781 18.0547 5.33594 17.7734C5.66406 17.4922 5.97656 17.2344 6.27344 17C6.35156 16.6875 6.42188 16.3984 6.48438 16.1328C6.5625 15.8516 6.625 15.6016 6.67188 15.3828C6.26562 15.9297 5.77344 16.3906 5.19531 16.7656C4.63281 17.1406 3.98438 17.3281 3.25 17.3281C2.57812 17.3281 2.03125 17.0312 1.60938 16.4375C1.20312 15.8281 1 14.9375 1 13.7656C1 13.1875 1.10938 12.5234 1.32812 11.7734C1.54688 11.0234 1.85938 10.3203 2.26562 9.66406C2.67188 9.00781 3.17188 8.45312 3.76562 8C4.35938 7.54688 5.02344 7.32031 5.75781 7.32031C6.10156 7.32031 6.39844 7.40625 6.64844 7.57812C6.89844 7.75 7.10938 7.96875 7.28125 8.23438C7.45312 8.48438 7.58594 8.75781 7.67969 9.05469C7.77344 9.33594 7.84375 9.60156 7.89062 9.85156C7.92188 9.75781 7.94531 9.66406 7.96094 9.57031C7.97656 9.46094 8 9.36719 8.03125 9.28906C8.1875 8.75781 8.35938 8.39844 8.54688 8.21094C8.75 8.00781 9.04688 7.90625 9.4375 7.90625C9.65625 7.90625 9.83594 7.94531 9.97656 8.02344C10.1328 8.10156 10.2109 8.17188 10.2109 8.23438C10.1328 8.40625 10.0703 8.53906 10.0234 8.63281C9.97656 8.72656 9.92969 8.82812 9.88281 8.9375C9.83594 9.03125 9.78906 9.15625 9.74219 9.3125C9.69531 9.46875 9.63281 9.69531 9.55469 9.99219C9.52344 10.1016 9.46094 10.3594 9.36719 10.7656C9.28906 11.1562 9.17969 11.625 9.03906 12.1719C8.91406 12.7188 8.77344 13.3203 8.61719 13.9766C8.47656 14.6328 8.33594 15.2734 8.19531 15.8984C8.63281 15.6484 9.08594 15.3438 9.55469 14.9844C10.0234 14.625 10.4688 14.2578 10.8906 13.8828C11.3125 13.5078 11.6875 13.1562 12.0156 12.8281C12.3438 12.4844 12.5859 12.2031 12.7422 11.9844C12.8672 11.7969 13.0078 11.6641 13.1641 11.5859C13.3203 11.5078 13.4531 11.4844 13.5625 11.5156C13.6875 11.5312 13.7578 11.6016 13.7734 11.7266C13.8047 11.8359 13.7578 11.9922 13.6328 12.1953C13.2734 12.7734 12.8359 13.3359 12.3203 13.8828C11.8047 14.4141 11.2734 14.9141 10.7266 15.3828C10.1953 15.8359 9.67188 16.2422 9.15625 16.6016C8.65625 16.9453 8.22656 17.2266 7.86719 17.4453C7.71094 18.1484 7.57812 18.7188 7.46875 19.1562C7.35938 19.5938 7.26562 19.9922 7.1875 20.3516ZM4.23438 15.7344C4.5625 15.7344 4.86719 15.6484 5.14844 15.4766C5.44531 15.3047 5.71094 15.1094 5.94531 14.8906C6.17969 14.6562 6.375 14.4219 6.53125 14.1875C6.6875 13.9531 6.80469 13.7656 6.88281 13.625C6.94531 13.4844 7.01562 13.2969 7.09375 13.0625C7.1875 12.8281 7.25781 12.6016 7.30469 12.3828C7.35156 12.1641 7.36719 11.9688 7.35156 11.7969C7.35156 11.625 7.29688 11.5312 7.1875 11.5156C7.09375 11.5 7.01562 11.4375 6.95312 11.3281C6.90625 11.2188 6.86719 11.0938 6.83594 10.9531C6.80469 10.8125 6.78125 10.6719 6.76562 10.5312C6.76562 10.3906 6.75781 10.2656 6.74219 10.1562C6.66406 9.60938 6.53125 9.21094 6.34375 8.96094C6.15625 8.71094 5.94531 8.58594 5.71094 8.58594C5.32031 8.58594 4.94531 8.74219 4.58594 9.05469C4.24219 9.36719 3.92969 9.77344 3.64844 10.2734C3.38281 10.7578 3.17188 11.2969 3.01562 11.8906C2.85938 12.4688 2.78125 13.0234 2.78125 13.5547C2.78125 14.2109 2.875 14.7422 3.0625 15.1484C3.25 15.5391 3.64062 15.7344 4.23438 15.7344ZM3.15625 26.6094C3.46875 26.6094 3.71875 26.375 3.90625 25.9062C4.10938 25.4531 4.32031 24.8281 4.53906 24.0312C4.58594 23.8438 4.64844 23.5703 4.72656 23.2109C4.82031 22.8672 4.92188 22.4688 5.03125 22.0156C5.15625 21.5625 5.28125 21.0703 5.40625 20.5391C5.53125 20.0234 5.66406 19.5 5.80469 18.9688C5.67969 19.0781 5.54688 19.1875 5.40625 19.2969C5.28125 19.4219 5.14844 19.5625 5.00781 19.7188C4.66406 20.0469 4.32812 20.3594 4 20.6562C3.6875 20.9688 3.40625 21.2891 3.15625 21.6172C2.90625 21.9609 2.70312 22.3281 2.54688 22.7188C2.40625 23.1094 2.33594 23.5625 2.33594 24.0781C2.33594 24.5938 2.35156 25.0156 2.38281 25.3438C2.42969 25.6719 2.48438 25.9297 2.54688 26.1172C2.625 26.3047 2.71094 26.4297 2.80469 26.4922C2.91406 26.5703 3.03125 26.6094 3.15625 26.6094ZM17.1953 3.19531C17.1484 3.36719 17.0547 3.53906 16.9141 3.71094C16.7891 3.86719 16.6406 4 16.4688 4.10938C16.3125 4.20312 16.1484 4.26562 15.9766 4.29688C15.8047 4.32812 15.6641 4.29688 15.5547 4.20312C15.2266 3.95312 15.0547 3.6875 15.0391 3.40625C15.0234 3.10938 15.0938 2.83594 15.25 2.58594C15.4062 2.32031 15.6016 2.10156 15.8359 1.92969C16.0703 1.74219 16.2734 1.63281 16.4453 1.60156C16.6172 1.57031 16.7578 1.60938 16.8672 1.71875C16.9922 1.8125 17.0859 1.94531 17.1484 2.11719C17.2109 2.27344 17.2422 2.45312 17.2422 2.65625C17.2578 2.85938 17.2422 3.03906 17.1953 3.19531ZM13.9609 8.1875C14.0391 8.09375 14.1875 8.01562 14.4062 7.95312C14.625 7.89062 14.8516 7.84375 15.0859 7.8125C15.3203 7.76562 15.5312 7.74219 15.7188 7.74219C15.9219 7.72656 16.0391 7.72656 16.0703 7.74219C16.0859 7.75781 16.0469 7.92188 15.9531 8.23438C15.8594 8.54688 15.7422 8.91406 15.6016 9.33594C15.4609 9.75781 15.3125 10.1953 15.1562 10.6484C15 11.0859 14.8828 11.4453 14.8047 11.7266C14.7266 12.0078 14.6328 12.3281 14.5234 12.6875C14.4141 13.0312 14.3125 13.375 14.2188 13.7188C14.1406 14.0469 14.0859 14.3594 14.0547 14.6562C14.0234 14.9531 14.0469 15.1797 14.125 15.3359C14.2031 15.5234 14.2891 15.6562 14.3828 15.7344C14.4766 15.7969 14.5781 15.8281 14.6875 15.8281C15 15.8281 15.3906 15.6562 15.8594 15.3125C16.3438 14.9688 16.8281 14.5625 17.3125 14.0938C17.8125 13.6094 18.2734 13.125 18.6953 12.6406C19.1172 12.1406 19.4297 11.7422 19.6328 11.4453C19.7578 11.2891 19.8828 11.1875 20.0078 11.1406C20.1484 11.0938 20.2578 11.1016 20.3359 11.1641C20.4297 11.2266 20.4766 11.3281 20.4766 11.4688C20.4922 11.6094 20.4453 11.7734 20.3359 11.9609C20.0859 12.3984 19.7188 12.9219 19.2344 13.5312C18.75 14.125 18.2344 14.7031 17.6875 15.2656C17.1406 15.8125 16.6016 16.2812 16.0703 16.6719C15.5547 17.0625 15.1328 17.2656 14.8047 17.2812C14.5391 17.2969 14.2734 17.25 14.0078 17.1406C13.7578 17.0469 13.5234 16.9141 13.3047 16.7422C13.1016 16.5547 12.9297 16.3438 12.7891 16.1094C12.6484 15.8594 12.5703 15.6016 12.5547 15.3359C12.5078 14.9453 12.5078 14.4141 12.5547 13.7422C12.6016 13.0547 12.6875 12.3594 12.8125 11.6562C12.9375 10.9375 13.0938 10.2578 13.2812 9.61719C13.4844 8.97656 13.7109 8.5 13.9609 8.1875ZM19.0938 14.5625C18.9219 14.3906 18.7969 14.2266 18.7188 14.0703C18.6562 13.8984 18.6094 13.7344 18.5781 13.5781C18.5469 13.4062 18.5469 13.2344 18.5781 13.0625C18.6406 12.8438 18.7344 12.6406 18.8594 12.4531C18.9688 12.2812 19.1172 12.1094 19.3047 11.9375C19.4922 11.75 19.7422 11.5781 20.0547 11.4219C20.2578 10.9219 20.4375 10.3984 20.5938 9.85156C20.7656 9.28906 20.9141 8.78125 21.0391 8.32812C21.1797 7.79688 21.3047 7.26562 21.4141 6.73438C21.8047 5.40625 22.0078 4.32812 22.0234 3.5C22.0391 2.65625 22.0234 2.10156 21.9766 1.83594C21.9609 1.72656 21.9453 1.61719 21.9297 1.50781C21.8984 1.41406 21.8672 1.3125 21.8359 1.20312C21.8203 1.07812 21.7969 0.960937 21.7656 0.851562C21.9375 0.757812 22.0859 0.679687 22.2109 0.617188C22.3516 0.554688 22.4688 0.507813 22.5625 0.476562C22.6719 0.429688 22.7734 0.398437 22.8672 0.382812C23.2266 0.304687 23.5625 0.265625 23.875 0.265625C24.2031 0.25 24.3828 0.304687 24.4141 0.429688C24.4297 0.507813 24.4453 0.648438 24.4609 0.851562C24.4922 1.05469 24.5078 1.30469 24.5078 1.60156C24.5078 1.89844 24.4844 2.23438 24.4375 2.60938C24.3906 2.96875 24.3047 3.35156 24.1797 3.75781C24.0703 4.11719 23.9219 4.61719 23.7344 5.25781C23.5625 5.80469 23.3359 6.53906 23.0547 7.46094C22.7734 8.36719 22.4062 9.53125 21.9531 10.9531C22.4219 10.7969 22.9375 10.6484 23.5 10.5078C24.0625 10.3672 24.6328 10.25 25.2109 10.1562C25.8047 10.0625 26.3906 9.99219 26.9688 9.94531C27.5625 9.89844 28.1094 9.89062 28.6094 9.92188C28.7031 9.92188 28.7656 9.96875 28.7969 10.0625C28.8438 10.1406 28.8438 10.2266 28.7969 10.3203C28.7656 10.4141 28.6797 10.5078 28.5391 10.6016C28.4141 10.6797 28.2266 10.7266 27.9766 10.7422C27.6641 10.7734 27.3203 10.8125 26.9453 10.8594C26.5703 10.8906 26.1797 10.9453 25.7734 11.0234C25.3828 11.0859 24.9922 11.1719 24.6016 11.2812C24.2109 11.375 23.8438 11.4922 23.5 11.6328C23.2344 11.7266 22.9688 11.8203 22.7031 11.9141C22.4844 11.9922 22.25 12.0859 22 12.1953C21.7656 12.2891 21.5703 12.375 21.4141 12.4531L20.875 14.1641C21.7812 14.8047 22.4766 15.4609 22.9609 16.1328C23.4609 16.8047 23.8203 17.4219 24.0391 17.9844C24.3047 18.6406 24.4531 19.2812 24.4844 19.9062C24.4844 20.5938 24.3828 21.2812 24.1797 21.9688C23.9766 22.6719 23.7031 23.3359 23.3594 23.9609C23.0312 24.6016 22.6406 25.1953 22.1875 25.7422C21.75 26.2891 21.2812 26.7578 20.7812 27.1484C20.2969 27.5391 19.7969 27.8359 19.2812 28.0391C18.7812 28.2422 18.3047 28.3203 17.8516 28.2734C17.5234 28.2422 17.25 28.1328 17.0312 27.9453C16.8125 27.7734 16.6484 27.5469 16.5391 27.2656C16.4297 27 16.3672 26.6953 16.3516 26.3516C16.3359 26.0234 16.3672 25.6953 16.4453 25.3672C16.5078 25.0391 16.6406 24.4297 16.8438 23.5391C17.0156 22.7891 17.2812 21.6953 17.6406 20.2578C18 18.8359 18.4844 16.9375 19.0938 14.5625ZM20.4766 15.6641C20.2578 16.4453 20.0625 17.1641 19.8906 17.8203C19.7344 18.4766 19.6016 19.0547 19.4922 19.5547C19.3516 20.1328 19.2422 20.6562 19.1641 21.125C19.0234 21.7188 18.875 22.3047 18.7188 22.8828C18.5781 23.4609 18.4688 23.9766 18.3906 24.4297C18.2969 24.8984 18.2578 25.2734 18.2734 25.5547C18.2891 25.8359 18.3906 25.9766 18.5781 25.9766C19.0312 26.0078 19.5 25.8281 19.9844 25.4375C20.4844 25.0625 20.9375 24.5781 21.3438 23.9844C21.75 23.4062 22.0859 22.7734 22.3516 22.0859C22.6172 21.4141 22.75 20.7891 22.75 20.2109C22.75 19.5703 22.6484 18.9375 22.4453 18.3125C22.3047 17.9844 22.1406 17.6641 21.9531 17.3516C21.7812 17.0859 21.5703 16.8047 21.3203 16.5078C21.0859 16.1953 20.8047 15.9141 20.4766 15.6641ZM35.0781 11.0703C35.1406 10.9766 35.2188 10.9219 35.3125 10.9062C35.4219 10.875 35.5078 10.8828 35.5703 10.9297C35.6328 10.9766 35.6641 11.0547 35.6641 11.1641C35.6797 11.2734 35.6406 11.4219 35.5469 11.6094C35.2344 12.2031 34.8203 12.8438 34.3047 13.5312C33.8047 14.2188 33.2734 14.8672 32.7109 15.4766C32.1484 16.0703 31.6016 16.5625 31.0703 16.9531C30.5391 17.3438 30.0938 17.5391 29.7344 17.5391C29.2188 17.5391 28.7891 17.4375 28.4453 17.2344C28.1016 17.0312 27.8281 16.7812 27.625 16.4844C27.4375 16.1875 27.3047 15.8672 27.2266 15.5234C27.1484 15.1641 27.125 14.8359 27.1562 14.5391C27.1719 14.2891 27.2266 13.8438 27.3203 13.2031C27.4141 12.5469 27.5391 11.7969 27.6953 10.9531C27.8516 10.0938 28.0234 9.17969 28.2109 8.21094C28.4141 7.22656 28.625 6.28125 28.8438 5.375C28.5781 5.40625 28.3125 5.4375 28.0469 5.46875C27.7812 5.5 27.5391 5.51562 27.3203 5.51562C26.8203 5.51562 26.3516 5.46094 25.9141 5.35156C25.4609 5.22656 25.125 5.10938 24.9062 5C24.7812 4.9375 24.7266 4.85156 24.7422 4.74219C24.7578 4.61719 24.8047 4.5 24.8828 4.39062C24.9609 4.26562 25.0625 4.16406 25.1875 4.08594C25.2969 3.99219 25.3984 3.94531 25.4922 3.94531C25.7891 3.97656 26.1094 4.00781 26.4531 4.03906C26.7969 4.05469 27.1719 4.05469 27.5781 4.03906C27.875 4.02344 28.1562 4 28.4219 3.96875C28.7031 3.9375 28.9766 3.89844 29.2422 3.85156C29.4453 3.10156 29.6406 2.45312 29.8281 1.90625C30.0312 1.34375 30.2109 0.953125 30.3672 0.734375C30.4141 0.65625 30.5156 0.59375 30.6719 0.546875C30.8438 0.484375 31.0234 0.445312 31.2109 0.429688C31.3984 0.398437 31.5781 0.398437 31.75 0.429688C31.9219 0.445312 32.0469 0.5 32.125 0.59375C32.2031 0.71875 32.2344 1.03906 32.2188 1.55469C32.2031 2.07031 32.1172 2.72656 31.9609 3.52344C32.6172 3.52344 33.1953 3.5625 33.6953 3.64062C34.2109 3.70312 34.6484 3.78125 35.0078 3.875C35.3672 3.95312 35.6562 4.03906 35.875 4.13281C36.0938 4.21094 36.2578 4.26562 36.3672 4.29688C36.4766 4.32812 36.5312 4.40625 36.5312 4.53125C36.5469 4.65625 36.5234 4.78906 36.4609 4.92969C36.4141 5.05469 36.3281 5.16406 36.2031 5.25781C36.0781 5.35156 35.9375 5.38281 35.7812 5.35156C35.625 5.33594 35.4453 5.30469 35.2422 5.25781C35.0547 5.21094 34.8203 5.17188 34.5391 5.14062C34.2734 5.10938 33.9531 5.07812 33.5781 5.04688C33.2031 5.01562 32.7656 5 32.2656 5C32.1719 5 32.0625 5.00781 31.9375 5.02344C31.8281 5.02344 31.7109 5.02344 31.5859 5.02344C31.5234 5.27344 31.4609 5.52344 31.3984 5.77344C31.3516 6.00781 31.2812 6.25781 31.1875 6.52344C30.9844 7.14844 30.75 7.82812 30.4844 8.5625C30.25 9.20312 29.9688 9.9375 29.6406 10.7656C29.3125 11.5938 28.9453 12.4766 28.5391 13.4141C28.4453 14.0859 28.4531 14.6016 28.5625 14.9609C28.6875 15.3047 28.8359 15.5547 29.0078 15.7109C29.2109 15.8828 29.4609 15.9766 29.7578 15.9922C29.9922 16.0234 30.2734 15.9453 30.6016 15.7578C30.9453 15.5547 31.2969 15.2891 31.6562 14.9609C32.0156 14.6328 32.375 14.2734 32.7344 13.8828C33.1094 13.4922 33.4531 13.1094 33.7656 12.7344C34.0781 12.3594 34.3516 12.0234 34.5859 11.7266C34.8203 11.4141 34.9844 11.1953 35.0781 11.0703ZM33.3203 16.625C34.0078 13.7344 34.5547 11.4141 34.9609 9.66406C35.3828 7.91406 35.7031 6.57812 35.9219 5.65625C36.1719 4.5625 36.3438 3.80469 36.4375 3.38281C36.4844 3.08594 36.5234 2.79688 36.5547 2.51562C36.5859 2.26562 36.6016 2.00781 36.6016 1.74219C36.6016 1.47656 36.5781 1.23438 36.5312 1.01562C36.6562 0.9375 36.7891 0.875 36.9297 0.828125C37.0859 0.78125 37.2344 0.742188 37.375 0.710938C37.5469 0.664062 37.7188 0.625 37.8906 0.59375C38.0625 0.5625 38.2188 0.546875 38.3594 0.546875C38.4844 0.546875 38.6016 0.5625 38.7109 0.59375C38.8203 0.609375 38.8906 0.65625 38.9219 0.734375C39.0156 0.8125 39.0547 0.96875 39.0391 1.20312C39.0391 1.4375 39.0234 1.67969 38.9922 1.92969C38.9297 2.22656 38.8594 2.54688 38.7812 2.89062C38.5938 3.5625 38.3359 4.53125 38.0078 5.79688C37.7266 6.875 37.3438 8.34375 36.8594 10.2031C36.3906 12.0625 35.7969 14.4062 35.0781 17.2344C35 17.3125 34.9062 17.3672 34.7969 17.3984C34.6875 17.4297 34.5859 17.4453 34.4922 17.4453C34.3828 17.4453 34.2656 17.4375 34.1406 17.4219C34.0312 17.3906 33.9219 17.3438 33.8125 17.2812C33.7188 17.2188 33.625 17.1328 33.5312 17.0234C33.4375 16.9297 33.3672 16.7969 33.3203 16.625ZM44.0781 3.19531C44.0312 3.36719 43.9375 3.53906 43.7969 3.71094C43.6719 3.86719 43.5234 4 43.3516 4.10938C43.1953 4.20312 43.0312 4.26562 42.8594 4.29688C42.6875 4.32812 42.5469 4.29688 42.4375 4.20312C42.1094 3.95312 41.9375 3.6875 41.9219 3.40625C41.9062 3.10938 41.9766 2.83594 42.1328 2.58594C42.2891 2.32031 42.4844 2.10156 42.7188 1.92969C42.9531 1.74219 43.1562 1.63281 43.3281 1.60156C43.5 1.57031 43.6406 1.60938 43.75 1.71875C43.875 1.8125 43.9688 1.94531 44.0312 2.11719C44.0938 2.27344 44.125 2.45312 44.125 2.65625C44.1406 2.85938 44.125 3.03906 44.0781 3.19531ZM40.8438 8.1875C40.9219 8.09375 41.0703 8.01562 41.2891 7.95312C41.5078 7.89062 41.7344 7.84375 41.9688 7.8125C42.2031 7.76562 42.4141 7.74219 42.6016 7.74219C42.8047 7.72656 42.9219 7.72656 42.9531 7.74219C42.9688 7.75781 42.9297 7.92188 42.8359 8.23438C42.7422 8.54688 42.625 8.91406 42.4844 9.33594C42.3438 9.75781 42.1953 10.1953 42.0391 10.6484C41.8828 11.0859 41.7656 11.4453 41.6875 11.7266C41.6094 12.0078 41.5156 12.3281 41.4062 12.6875C41.2969 13.0312 41.1953 13.375 41.1016 13.7188C41.0234 14.0469 40.9688 14.3594 40.9375 14.6562C40.9062 14.9531 40.9297 15.1797 41.0078 15.3359C41.0859 15.5234 41.1719 15.6562 41.2656 15.7344C41.3594 15.7969 41.4609 15.8281 41.5703 15.8281C41.8828 15.8281 42.2734 15.6562 42.7422 15.3125C43.2266 14.9688 43.7109 14.5625 44.1953 14.0938C44.6953 13.6094 45.1562 13.125 45.5781 12.6406C46 12.1406 46.3125 11.7422 46.5156 11.4453C46.6406 11.2891 46.7656 11.1875 46.8906 11.1406C47.0312 11.0938 47.1406 11.1016 47.2188 11.1641C47.3125 11.2266 47.3594 11.3281 47.3594 11.4688C47.375 11.6094 47.3281 11.7734 47.2188 11.9609C46.9688 12.3984 46.6016 12.9219 46.1172 13.5312C45.6328 14.125 45.1172 14.7031 44.5703 15.2656C44.0234 15.8125 43.4844 16.2812 42.9531 16.6719C42.4375 17.0625 42.0156 17.2656 41.6875 17.2812C41.4219 17.2969 41.1562 17.25 40.8906 17.1406C40.6406 17.0469 40.4062 16.9141 40.1875 16.7422C39.9844 16.5547 39.8125 16.3438 39.6719 16.1094C39.5312 15.8594 39.4531 15.6016 39.4375 15.3359C39.3906 14.9453 39.3906 14.4141 39.4375 13.7422C39.4844 13.0547 39.5703 12.3594 39.6953 11.6562C39.8203 10.9375 39.9766 10.2578 40.1641 9.61719C40.3672 8.97656 40.5938 8.5 40.8438 8.1875ZM48.8125 16.2031C48.9062 16.2656 49.0234 16.2969 49.1641 16.2969C49.3203 16.2969 49.4688 16.2656 49.6094 16.2031C49.7656 16.1406 49.9062 16.0547 50.0312 15.9453C50.1719 15.8359 50.2734 15.6953 50.3359 15.5234C50.3984 15.3516 50.3984 15.1094 50.3359 14.7969C50.2734 14.4688 50.1719 14.125 50.0312 13.7656C49.9062 13.3906 49.7656 13.0156 49.6094 12.6406C49.4531 12.2656 49.3203 11.9219 49.2109 11.6094C49.1172 11.375 49.0391 11.1562 48.9766 10.9531C48.9141 10.7812 48.8516 10.6172 48.7891 10.4609C48.7422 10.2891 48.7031 10.1719 48.6719 10.1094C48.5938 10.2344 48.4531 10.4375 48.25 10.7188C48.0625 11 47.8516 11.2969 47.6172 11.6094C47.3984 11.9062 47.1875 12.1875 46.9844 12.4531C46.7812 12.7031 46.6406 12.875 46.5625 12.9688C46.4375 13.1094 46.3125 13.1953 46.1875 13.2266C46.0781 13.2422 45.9844 13.2188 45.9062 13.1562C45.8281 13.0781 45.7812 12.9766 45.7656 12.8516C45.7656 12.7109 45.8281 12.5469 45.9531 12.3594C46.0469 12.2344 46.1875 12.0391 46.375 11.7734C46.5625 11.4922 46.75 11.2109 46.9375 10.9297C47.125 10.6328 47.2969 10.375 47.4531 10.1562C47.6094 9.92188 47.6953 9.78125 47.7109 9.73438C47.7422 9.60938 47.6953 9.44531 47.5703 9.24219C47.4609 9.03906 47.4453 8.80469 47.5234 8.53906C47.5859 8.32031 47.7266 8.07031 47.9453 7.78906C48.1641 7.49219 48.4219 7.22656 48.7188 6.99219C49.0156 6.75781 49.3203 6.58594 49.6328 6.47656C49.9453 6.35156 50.2266 6.35156 50.4766 6.47656C50.6797 6.60156 50.8438 6.74219 50.9688 6.89844C51.0938 7.03906 51.1406 7.1875 51.1094 7.34375C51.0781 7.42188 51.0312 7.52344 50.9688 7.64844C50.9062 7.77344 50.8125 7.92969 50.6875 8.11719C50.5625 8.28906 50.3828 8.51562 50.1484 8.79688C50.1953 9.15625 50.2578 9.48438 50.3359 9.78125C50.4297 10.0781 50.5156 10.3359 50.5938 10.5547C50.6875 10.8203 50.7891 11.0625 50.8984 11.2812C51.0391 11.5625 51.1875 11.8516 51.3438 12.1484C51.5 12.4453 51.6406 12.7422 51.7656 13.0391C51.8906 13.3203 51.9922 13.5859 52.0703 13.8359C52.1484 14.0859 52.1719 14.2969 52.1406 14.4688C52.0938 14.7344 51.9531 15.0547 51.7188 15.4297C51.5 15.8047 51.2188 16.1719 50.875 16.5312C50.5469 16.875 50.1641 17.1719 49.7266 17.4219C49.3047 17.6719 48.8594 17.7969 48.3906 17.7969C48.0625 17.7969 47.7422 17.6953 47.4297 17.4922C47.1328 17.2891 46.875 17.0547 46.6562 16.7891C46.4531 16.5078 46.2969 16.2344 46.1875 15.9688C46.0938 15.7031 46.0859 15.5 46.1641 15.3594C46.2578 15.1719 46.3438 15.0234 46.4219 14.9141C46.5 14.8047 46.6172 14.6797 46.7734 14.5391C46.8359 14.4922 46.9141 14.4375 47.0078 14.375C47.0859 14.3281 47.1953 14.2812 47.3359 14.2344C47.4766 14.1875 47.6406 14.1328 47.8281 14.0703C47.9844 14.5547 48.125 14.9375 48.25 15.2188C48.375 15.4844 48.4766 15.6953 48.5547 15.8516C48.6484 16.0234 48.7344 16.1406 48.8125 16.2031ZM62.5938 11.0703C62.6562 10.9766 62.7344 10.9219 62.8281 10.9062C62.9375 10.875 63.0234 10.8828 63.0859 10.9297C63.1484 10.9766 63.1797 11.0547 63.1797 11.1641C63.1953 11.2734 63.1562 11.4219 63.0625 11.6094C62.75 12.2031 62.3359 12.8438 61.8203 13.5312C61.3203 14.2188 60.7891 14.8672 60.2266 15.4766C59.6641 16.0703 59.1172 16.5625 58.5859 16.9531C58.0547 17.3438 57.6094 17.5391 57.25 17.5391C56.7344 17.5391 56.3047 17.4375 55.9609 17.2344C55.6172 17.0312 55.3438 16.7812 55.1406 16.4844C54.9531 16.1875 54.8203 15.8672 54.7422 15.5234C54.6641 15.1641 54.6406 14.8359 54.6719 14.5391C54.6875 14.2891 54.7422 13.8438 54.8359 13.2031C54.9297 12.5469 55.0547 11.7969 55.2109 10.9531C55.3672 10.0938 55.5391 9.17969 55.7266 8.21094C55.9297 7.22656 56.1406 6.28125 56.3594 5.375C56.0938 5.40625 55.8281 5.4375 55.5625 5.46875C55.2969 5.5 55.0547 5.51562 54.8359 5.51562C54.3359 5.51562 53.8672 5.46094 53.4297 5.35156C52.9766 5.22656 52.6406 5.10938 52.4219 5C52.2969 4.9375 52.2422 4.85156 52.2578 4.74219C52.2734 4.61719 52.3203 4.5 52.3984 4.39062C52.4766 4.26562 52.5781 4.16406 52.7031 4.08594C52.8125 3.99219 52.9141 3.94531 53.0078 3.94531C53.3047 3.97656 53.625 4.00781 53.9688 4.03906C54.3125 4.05469 54.6875 4.05469 55.0938 4.03906C55.3906 4.02344 55.6719 4 55.9375 3.96875C56.2188 3.9375 56.4922 3.89844 56.7578 3.85156C56.9609 3.10156 57.1562 2.45312 57.3438 1.90625C57.5469 1.34375 57.7266 0.953125 57.8828 0.734375C57.9297 0.65625 58.0312 0.59375 58.1875 0.546875C58.3594 0.484375 58.5391 0.445312 58.7266 0.429688C58.9141 0.398437 59.0938 0.398437 59.2656 0.429688C59.4375 0.445312 59.5625 0.5 59.6406 0.59375C59.7188 0.71875 59.75 1.03906 59.7344 1.55469C59.7188 2.07031 59.6328 2.72656 59.4766 3.52344C60.1328 3.52344 60.7109 3.5625 61.2109 3.64062C61.7266 3.70312 62.1641 3.78125 62.5234 3.875C62.8828 3.95312 63.1719 4.03906 63.3906 4.13281C63.6094 4.21094 63.7734 4.26562 63.8828 4.29688C63.9922 4.32812 64.0469 4.40625 64.0469 4.53125C64.0625 4.65625 64.0391 4.78906 63.9766 4.92969C63.9297 5.05469 63.8438 5.16406 63.7188 5.25781C63.5938 5.35156 63.4531 5.38281 63.2969 5.35156C63.1406 5.33594 62.9609 5.30469 62.7578 5.25781C62.5703 5.21094 62.3359 5.17188 62.0547 5.14062C61.7891 5.10938 61.4688 5.07812 61.0938 5.04688C60.7188 5.01562 60.2812 5 59.7812 5C59.6875 5 59.5781 5.00781 59.4531 5.02344C59.3438 5.02344 59.2266 5.02344 59.1016 5.02344C59.0391 5.27344 58.9766 5.52344 58.9141 5.77344C58.8672 6.00781 58.7969 6.25781 58.7031 6.52344C58.5 7.14844 58.2656 7.82812 58 8.5625C57.7656 9.20312 57.4844 9.9375 57.1562 10.7656C56.8281 11.5938 56.4609 12.4766 56.0547 13.4141C55.9609 14.0859 55.9688 14.6016 56.0781 14.9609C56.2031 15.3047 56.3516 15.5547 56.5234 15.7109C56.7266 15.8828 56.9766 15.9766 57.2734 15.9922C57.5078 16.0234 57.7891 15.9453 58.1172 15.7578C58.4609 15.5547 58.8125 15.2891 59.1719 14.9609C59.5312 14.6328 59.8906 14.2734 60.25 13.8828C60.625 13.4922 60.9688 13.1094 61.2812 12.7344C61.5938 12.3594 61.8672 12.0234 62.1016 11.7266C62.3359 11.4141 62.5 11.1953 62.5938 11.0703Z" fill="#F8FAFC"/>
</svg>
