<svg width="68" height="68" viewBox="0 0 68 68" fill="none" xmlns="http://www.w3.org/2000/svg">
<path fill-rule="evenodd" clip-rule="evenodd" d="M17.0295 17.0294C14.6863 19.3726 14.6863 23.1716 17.0295 25.5147L25.5147 34L17.0295 42.4853C14.6863 44.8284 14.6863 48.6274 17.0295 50.9706C19.3726 53.3137 23.1716 53.3137 25.5147 50.9706L34 42.4853L42.4853 50.9706C44.8285 53.3137 48.6274 53.3137 50.9706 50.9706C53.3137 48.6274 53.3137 44.8284 50.9706 42.4853L42.4853 34L50.9706 25.5147C53.3137 23.1716 53.3137 19.3726 50.9706 17.0294C48.6274 14.6863 44.8285 14.6863 42.4853 17.0294L34 25.5147L25.5147 17.0294C23.1716 14.6863 19.3726 14.6863 17.0295 17.0294Z" fill="black"/>
</svg>
