<svg width="60" height="68" viewBox="0 0 60 68" fill="none" xmlns="http://www.w3.org/2000/svg">
<path fill-rule="evenodd" clip-rule="evenodd" d="M60 10C60 15.5229 55.5228 20 50 20C46.9066 20 44.1411 18.5954 42.3068 16.3891L19.078 29.8003C19.6697 31.0772 20 32.5 20 34C20 35.0175 19.848 35.9995 19.5656 36.9246L43.2654 50.6077C45.0425 48.9878 47.4059 48 50 48C55.5228 48 60 52.4771 60 58C60 63.5229 55.5228 68 50 68C44.4772 68 40 63.5229 40 58C40 56.1659 40.4938 54.4471 41.3557 52.9693L18.2617 39.6359C16.4608 42.2708 13.4323 44 10 44C4.47717 44 0 39.5229 0 34C0 28.4771 4.47717 24 10 24C12.9427 24 15.5886 25.2711 17.4185 27.2943L40.7557 13.8205C40.2687 12.6434 40 11.3531 40 10C40 4.47714 44.4772 0 50 0C55.5228 0 60 4.47714 60 10Z" fill="black"/>
</svg>
