<svg width="22" height="24" viewBox="0 0 22 24" fill="none" xmlns="http://www.w3.org/2000/svg">
<g clip-path="url(#clip0)">
<path fill-rule="evenodd" clip-rule="evenodd" d="M21.3333 3.52941C21.3333 5.47867 19.7414 7.05882 17.7778 7.05882C16.6779 7.05882 15.6946 6.56308 15.0424 5.78439L6.78329 10.5178C6.99367 10.9684 7.11111 11.4706 7.11111 12C7.11111 12.3591 7.05707 12.7057 6.95666 13.0322L15.3833 17.8615C16.0151 17.2898 16.8554 16.9412 17.7778 16.9412C19.7414 16.9412 21.3333 18.5213 21.3333 20.4706C21.3333 22.4198 19.7414 24 17.7778 24C15.8141 24 14.2222 22.4198 14.2222 20.4706C14.2222 19.8233 14.3978 19.2166 14.7042 18.695L6.49305 13.9891C5.85273 14.9191 4.77593 15.5294 3.55556 15.5294C1.59188 15.5294 0 13.9493 0 12C0 10.0507 1.59188 8.47059 3.55556 8.47059C4.60185 8.47059 5.54261 8.91921 6.19324 9.63328L14.4909 4.87782C14.3178 4.46238 14.2222 4.00698 14.2222 3.52941C14.2222 1.58017 15.8141 0 17.7778 0C19.7414 0 21.3333 1.58017 21.3333 3.52941Z" fill="white"/>
</g>
<defs>
<clipPath id="clip0">
<rect width="21.3333" height="24" fill="white"/>
</clipPath>
</defs>
</svg>
