<svg width="13" height="20" viewBox="0 0 13 20" fill="none" xmlns="http://www.w3.org/2000/svg">
<path d="M6.6123 12.0723C6.54069 12.416 6.44759 12.8457 6.33301 13.3613C6.23275 13.877 6.111 14.4212 5.96777 14.9941C5.83887 15.5671 5.68132 16.1328 5.49512 16.6914C5.32324 17.2643 5.12988 17.7728 4.91504 18.2168C4.7002 18.6751 4.46387 19.0475 4.20605 19.334C3.94824 19.6204 3.66178 19.7637 3.34668 19.7637C2.87402 19.7637 2.46582 19.6204 2.12207 19.334C1.79264 19.0618 1.51335 18.7109 1.28418 18.2812C1.05501 17.8659 0.890299 17.4147 0.790039 16.9277C0.675456 16.4408 0.618164 15.9896 0.618164 15.5742C0.618164 15.0013 0.668294 14.5215 0.768555 14.1348C0.868815 13.7624 1.04069 13.4043 1.28418 13.0605C1.54199 12.7168 1.88574 12.3516 2.31543 11.9648C2.74512 11.5781 3.29655 11.0983 3.96973 10.5254C4.29915 10.2389 4.61426 9.9668 4.91504 9.70898C5.21582 9.45117 5.50228 9.21484 5.77441 9C5.84603 8.71354 5.91048 8.44857 5.96777 8.20508C6.03939 7.94727 6.09668 7.7181 6.13965 7.51758C5.76725 8.01888 5.31608 8.44141 4.78613 8.78516C4.27051 9.12891 3.67611 9.30078 3.00293 9.30078C2.38704 9.30078 1.88574 9.02865 1.49902 8.48438C1.12663 7.92578 0.94043 7.10938 0.94043 6.03516C0.94043 5.50521 1.04069 4.89648 1.24121 4.20898C1.44173 3.52148 1.72819 2.87695 2.10059 2.27539C2.47298 1.67383 2.93132 1.16536 3.47559 0.75C4.01986 0.334635 4.62858 0.126953 5.30176 0.126953C5.61686 0.126953 5.889 0.205729 6.11816 0.363281C6.34733 0.520833 6.54069 0.721354 6.69824 0.964844C6.85579 1.19401 6.97754 1.44466 7.06348 1.7168C7.14941 1.97461 7.21387 2.2181 7.25684 2.44727C7.28548 2.36133 7.30697 2.27539 7.32129 2.18945C7.33561 2.08919 7.3571 2.00326 7.38574 1.93164C7.52897 1.44466 7.68652 1.11523 7.8584 0.943359C8.0446 0.757161 8.31673 0.664062 8.6748 0.664062C8.87533 0.664062 9.04004 0.69987 9.16895 0.771484C9.31217 0.843099 9.38379 0.907552 9.38379 0.964844C9.31217 1.1224 9.25488 1.24414 9.21191 1.33008C9.16895 1.41602 9.12598 1.50911 9.08301 1.60938C9.04004 1.69531 8.99707 1.8099 8.9541 1.95312C8.91113 2.09635 8.85384 2.30404 8.78223 2.57617C8.75358 2.67643 8.69629 2.91276 8.61035 3.28516C8.53874 3.64323 8.43848 4.07292 8.30957 4.57422C8.19499 5.07552 8.06608 5.62695 7.92285 6.22852C7.79395 6.83008 7.66504 7.41732 7.53613 7.99023C7.93717 7.76107 8.35254 7.48177 8.78223 7.15234C9.21191 6.82292 9.62012 6.48633 10.0068 6.14258C10.3936 5.79883 10.7373 5.47656 11.0381 5.17578C11.3389 4.86068 11.5609 4.60286 11.7041 4.40234C11.8187 4.23047 11.9476 4.10872 12.0908 4.03711C12.234 3.96549 12.3558 3.94401 12.4561 3.97266C12.5706 3.98698 12.6351 4.05143 12.6494 4.16602C12.6781 4.26628 12.6351 4.40951 12.5205 4.5957C12.1911 5.12565 11.79 5.64128 11.3174 6.14258C10.8447 6.62956 10.3577 7.08789 9.85645 7.51758C9.36947 7.93294 8.88965 8.30534 8.41699 8.63477C7.95866 8.94987 7.56478 9.20768 7.23535 9.4082C7.09212 10.0527 6.97038 10.5755 6.87012 10.9766C6.76986 11.3776 6.68392 11.7428 6.6123 12.0723ZM3.90527 7.83984C4.20605 7.83984 4.48535 7.76107 4.74316 7.60352C5.0153 7.44596 5.25879 7.26693 5.47363 7.06641C5.68848 6.85156 5.86751 6.63672 6.01074 6.42188C6.15397 6.20703 6.26139 6.03516 6.33301 5.90625C6.3903 5.77734 6.45475 5.60547 6.52637 5.39062C6.6123 5.17578 6.67676 4.9681 6.71973 4.76758C6.7627 4.56706 6.77702 4.38802 6.7627 4.23047C6.7627 4.07292 6.71257 3.98698 6.6123 3.97266C6.52637 3.95833 6.45475 3.90104 6.39746 3.80078C6.35449 3.70052 6.31868 3.58594 6.29004 3.45703C6.26139 3.32812 6.23991 3.19922 6.22559 3.07031C6.22559 2.94141 6.21842 2.82682 6.2041 2.72656C6.13249 2.22526 6.01074 1.86003 5.83887 1.63086C5.66699 1.40169 5.47363 1.28711 5.25879 1.28711C4.90072 1.28711 4.55697 1.43034 4.22754 1.7168C3.91243 2.00326 3.62598 2.37565 3.36816 2.83398C3.12467 3.27799 2.93132 3.77214 2.78809 4.31641C2.64486 4.84635 2.57324 5.35482 2.57324 5.8418C2.57324 6.44336 2.65918 6.93034 2.83105 7.30273C3.00293 7.66081 3.361 7.83984 3.90527 7.83984ZM2.91699 17.8086C3.20345 17.8086 3.43262 17.5938 3.60449 17.1641C3.79069 16.7487 3.98405 16.1758 4.18457 15.4453C4.22754 15.2734 4.28483 15.0228 4.35645 14.6934C4.44238 14.3783 4.53548 14.013 4.63574 13.5977C4.75033 13.1823 4.86491 12.7311 4.97949 12.2441C5.09408 11.7715 5.21582 11.2917 5.34473 10.8047C5.23014 10.9049 5.1084 11.0052 4.97949 11.1055C4.86491 11.2201 4.74316 11.349 4.61426 11.4922C4.29915 11.793 3.99121 12.0794 3.69043 12.3516C3.40397 12.638 3.14616 12.9316 2.91699 13.2324C2.68783 13.5475 2.50163 13.8841 2.3584 14.2422C2.22949 14.6003 2.16504 15.0156 2.16504 15.4883C2.16504 15.9609 2.17936 16.3477 2.20801 16.6484C2.25098 16.9492 2.30111 17.1855 2.3584 17.3574C2.43001 17.5293 2.50879 17.6439 2.59473 17.7012C2.69499 17.7728 2.80241 17.8086 2.91699 17.8086Z" fill="black"/>
</svg>
